<svg xmlns="http://www.w3.org/2000/svg" xmlns:xlink="http://www.w3.org/1999/xlink" id="Capa_1" height="512" viewBox="0 0 502 502" width="512"><linearGradient id="SVGID_1_" gradientUnits="userSpaceOnUse" x1="248.564" x2="248.564" y1="242.589" y2="-18.356"><stop offset="0" stop-color="#74d2e8"/><stop offset="1" stop-color="#baeaf5"/></linearGradient><linearGradient id="lg1"><stop offset="0" stop-color="#4bb370"/><stop offset=".199" stop-color="#4eb575"/><stop offset=".4501" stop-color="#56bc85"/><stop offset=".7278" stop-color="#64c89f"/><stop offset="1" stop-color="#76d6bf"/></linearGradient><linearGradient id="SVGID_2_" gradientUnits="userSpaceOnUse" x1="136.576" x2="136.576" xlink:href="#lg1" y1="288.308" y2="32.657"/><linearGradient id="SVGID_3_" gradientUnits="userSpaceOnUse" x1="371.29" x2="371.29" xlink:href="#lg1" y1="288.308" y2="32.656"/><linearGradient id="SVGID_4_" gradientUnits="userSpaceOnUse" x1="251" x2="251" y1="313.022" y2="519.061"><stop offset="0" stop-color="#ec6f80"/><stop offset="1" stop-color="#eca0aa"/></linearGradient><linearGradient id="SVGID_5_" gradientUnits="userSpaceOnUse" x1="9.042" x2="492.958" y1="264.027" y2="264.027"><stop offset="0" stop-color="#f4c22c"/><stop offset="1" stop-color="#f9e198"/></linearGradient><linearGradient id="SVGID_6_" gradientUnits="userSpaceOnUse" x1="128.331" x2="128.331" y1="460.831" y2="242.397"><stop offset="0" stop-color="#f4d952"/><stop offset="1" stop-color="#f9edaf"/></linearGradient><g><path d="m354.425 356.287c76.192-61.71 89.721-208.475 36.564-296.21-35.187-37.006-84.893-60.077-139.989-60.077-54.7 0-104.083 22.744-139.225 59.285-20.467 43.855-37.675 81.889-37.675 133.861 0 90.491 54.23 152.437 129.987 187.396 15.02 3.748 30.731 5.749 46.912 5.749 38.05.001 73.525-11.008 103.426-30.004z" fill="url(#SVGID_1_)"/><path d="m218.503 172.346h-135.955v45h135.955c12.426 0 22.5-10.074 22.5-22.5-.001-12.427-10.074-22.5-22.5-22.5z" fill="#17c5d9"/><path d="m140.123 172.346c13.357-14.415 53.285-12.934 53.285-59.806 0-39.987-40.623-50.511-81.633-53.255-33.389 34.718-53.921 81.889-53.921 133.861 0 90.491 62.235 166.435 146.234 187.396 7.218-16.359 11.209-37.565 11.209-64.907 0-28.275-6.745-48.898-16.299-64.635-58.788-31.087-101.174-56.154-58.875-78.654z" fill="url(#SVGID_2_)"/><path d="m198.998 251c-23.254-38.305-63.174-47.62-63.174-67.529 0-4.698 1.616-8.23 4.299-11.125h-81.149c-.732 6.834-1.12 13.771-1.12 20.8 0 20.159 3.111 39.587 8.841 57.854z" fill="#00a663"/><path d="m390.989 60.077c-20.129 8.981-32.139 22.429-51.828 22.429-29.553 0-39.404 20.46-39.404 37.888s-1.515 25.006 25.006 25.006c26.522 0 68.956-18.95 68.956 5.68s-2.246 42.066-39.768 42.066c-37.523 0-55.517 17.837-55.517 55.517 0 28.059 20.909 81.937 55.991 107.624 53.929-34.261 89.721-94.518 89.721-163.141 0-51.576-20.218-98.428-53.157-133.069z" fill="url(#SVGID_3_)"/><path d="m357.898 502h-213.796c-41.802 0-77.652-29.828-85.254-70.934l-28.508-154.162h441.32l-28.509 154.163c-7.601 41.105-43.451 70.933-85.253 70.933z" fill="url(#SVGID_4_)"/><path d="m173.167 310.708-115.261 115.262.942 5.097c4.946 26.746 21.858 48.708 44.581 60.795 1.379-1.202 2.735-2.437 4.041-3.743l132.41-132.409h87.815c12.426 0 22.5-10.074 22.5-22.5 0-12.426-10.074-22.5-22.5-22.5h-154.528z" fill="#e05d6f"/><path d="m460.92 310.708h-419.84c-17.694 0-32.038-14.344-32.038-32.038v-10.756c0-27.928 22.64-50.569 50.569-50.569h382.779c27.928 0 50.569 22.64 50.569 50.569v10.756c-.001 17.695-14.345 32.038-32.039 32.038z" fill="url(#SVGID_5_)"/><path d="m181.01 254.792-153.432 153.433c-13.275 13.275-13.275 34.798 0 48.073 13.275 13.275 34.798 13.275 48.073 0l153.432-153.432c13.275-13.275 13.275-34.798 0-48.073-13.275-13.276-34.798-13.276-48.073-.001z" fill="url(#SVGID_6_)"/><g><path d="m384.545 109.848c-3.15 0-6.251-1.484-8.196-4.26-1.94-2.768-3.997-5.504-6.112-8.135-3.46-4.304-2.776-10.599 1.528-14.059 4.303-3.46 10.599-2.778 14.06 1.528 2.388 2.97 4.709 6.06 6.899 9.184 3.171 4.522 2.075 10.758-2.446 13.929-1.748 1.225-3.751 1.813-5.733 1.813z" fill="#7febbd"/><path d="m349.252 73.227c-2.104 0-4.227-.662-6.034-2.032-12.395-9.398-26.059-16.817-40.612-22.053-5.197-1.87-7.895-7.598-6.025-12.794s7.596-7.896 12.795-6.025c16.463 5.922 31.915 14.312 45.927 24.935 4.4 3.337 5.264 9.609 1.927 14.01-1.968 2.594-4.956 3.959-7.978 3.959z" fill="#dff7fa"/></g></g></svg>