<svg xmlns="http://www.w3.org/2000/svg" xmlns:xlink="http://www.w3.org/1999/xlink" id="Capa_1" height="512" viewBox="0 0 502 502" width="512"><linearGradient id="SVGID_1_" gradientUnits="userSpaceOnUse" x1="251" x2="251" y1="265.751" y2="521.195"><stop offset="0" stop-color="#ec6f80"/><stop offset="1" stop-color="#eca0aa"/></linearGradient><linearGradient id="SVGID_2_" gradientUnits="userSpaceOnUse" x1="251" x2="251" y1="358.49" y2="477.115"><stop offset="0" stop-color="#dd5c6e"/><stop offset="1" stop-color="#ec8290"/></linearGradient><linearGradient id="SVGID_3_" gradientUnits="userSpaceOnUse" x1="251" x2="251" y1="342.378" y2="-34.915"><stop offset="0" stop-color="#f4c22c"/><stop offset="1" stop-color="#f9e198"/></linearGradient><linearGradient id="SVGID_4_" gradientUnits="userSpaceOnUse" x1="251" x2="251" y1="364.929" y2="72.683"><stop offset="0" stop-color="#f4d952"/><stop offset="1" stop-color="#f9edaf"/></linearGradient><g><path d="m379.37 241.403c0 49.724 7.217 144.884 23.773 209.561 6.925 27.052-14.841 52.856-42.698 50.935-30.809-2.124-63.495-6.712-89.348-14.435-13.122-3.92-27.071-3.92-40.193 0-25.853 7.723-58.539 12.311-89.348 14.435-27.858 1.921-49.623-23.883-42.698-50.935 16.556-64.677 23.773-159.837 23.773-209.561z" fill="url(#SVGID_1_)"/><path d="m355.924 372.812c-3.516-8.259-12.691-12.45-21.283-9.852-10.521 3.181-21.84 4.126-33.274 2.429l-39.144-5.808c-7.442-1.104-15.006-1.104-22.448 0l-39.144 5.808c-34.623 5.137-68.221-13.894-81.716-46.041-1.412 16.852-3.24 34.457-5.513 51.929 24.27 22.603 58.044 33.822 92.365 28.733 39.721-5.753 39.914-6.257 45.231-6.257 5.327 0 5.477.499 45.231 6.257 16.719 2.479 33.356 1.081 48.841-3.647 9.891-3.019 14.905-14.037 10.854-23.551z" fill="#e05d6f"/><path d="m251 380.087c-28.041 0-42.47 15.074-49.976 20.523-3.637 37.364-8.835 72.2-15.595 96.568 16.209-2.43 31.801-5.63 45.475-9.715 13.122-3.92 27.071-3.92 40.193 0 13.674 4.085 29.267 7.285 45.475 9.715-6.76-24.369-11.958-59.205-15.595-96.568-7.507-5.448-21.936-20.523-49.977-20.523z" fill="url(#SVGID_2_)"/><path d="m207.379 272.312c0 37.841-2.12 84.784-6.356 128.298 1.58-.166 3.162-.365 4.745-.6 39.721-5.753 39.914-6.257 45.231-6.257 5.327 0 5.477.499 45.231 6.257 1.583.235 3.165.435 4.746.6-4.236-43.514-6.356-90.457-6.356-128.298z" fill="#d45566"/><path class="circle-animation" d="m239.776 6.641-39.144-5.808c-35.159-5.217-69.277 14.478-82.343 47.533l-14.552 36.814c-2.761 6.984-6.535 13.523-11.201 19.407l-24.588 31.004c-22.074 27.834-22.074 67.204 0 95.038l24.588 31.004c4.666 5.884 8.441 12.423 11.201 19.407l14.552 36.814c13.066 33.055 47.184 52.75 82.343 47.534l39.144-5.808c7.442-1.104 15.006-1.104 22.448 0l39.144 5.808c35.159 5.217 69.277-14.478 82.343-47.533l14.552-36.814c2.761-6.984 6.535-13.523 11.201-19.407l24.588-31.004c22.074-27.834 22.074-67.204 0-95.038l-24.588-31.004c-4.666-5.884-8.441-12.423-11.201-19.407l-14.552-36.814c-13.066-33.055-47.184-52.75-82.343-47.533l-39.144 5.808c-7.442 1.103-15.006 1.103-22.448-.001z" fill="url(#SVGID_3_)"/><circle cx="251" cy="183.111" fill="url(#SVGID_4_)" r="127.587"/></g></svg>