<svg xmlns="http://www.w3.org/2000/svg" xmlns:xlink="http://www.w3.org/1999/xlink" id="Capa_1" height="512" viewBox="0 0 502 502" width="512"><linearGradient id="lg1"><stop offset="0" stop-color="#996c66"/><stop offset="1" stop-color="#ba8a6c"/></linearGradient><linearGradient id="SVGID_1_" gradientUnits="userSpaceOnUse" x1="206.31" x2="-65.797" xlink:href="#lg1" y1="262.656" y2="262.656"/><linearGradient id="SVGID_2_" gradientUnits="userSpaceOnUse" x1="311.95" x2="311.95" xlink:href="#lg1" y1="22.422" y2="380.414"/><linearGradient id="SVGID_3_" gradientUnits="userSpaceOnUse" x1="211.066" x2="211.066" y1="296.194" y2="36.806"><stop offset="0" stop-color="#ad7d63"/><stop offset="1" stop-color="#cb9d82"/></linearGradient><linearGradient id="lg2"><stop offset="0" stop-color="#f4c22c"/><stop offset="1" stop-color="#f9e198"/></linearGradient><linearGradient id="SVGID_4_" gradientUnits="userSpaceOnUse" x1="211.066" x2="211.066" xlink:href="#lg2" y1="224.799" y2="93.786"/><linearGradient id="SVGID_5_" gradientUnits="userSpaceOnUse" x1="318.032" x2="318.032" xlink:href="#lg2" y1="298.395" y2="168.927"/><linearGradient id="lg3"><stop offset="0" stop-color="#74d2e8"/><stop offset="1" stop-color="#baeaf5"/></linearGradient><linearGradient id="SVGID_6_" gradientUnits="userSpaceOnUse" x1="183.023" x2="520.334" xlink:href="#lg3" y1="311.19" y2="311.19"/><linearGradient id="SVGID_7_" gradientUnits="userSpaceOnUse" x1="60.381" x2="60.381" xlink:href="#lg3" y1="454.74" y2="326.583"/><g><path d="m9.298 115.88v193.714c0 19.432 12.153 36.789 30.413 43.435l139.577 50.802c10.263 3.735 21.02 5.603 31.778 5.603l8.32-143.135-8.32-150.419z" fill="url(#SVGID_1_)"/><path d="m120.761 336.673h50.97c8.284 0 15-6.716 15-15 0-8.284-6.716-15-15-15h-24.157c-14.426-43.585-70.634-57.669-103.954-24.349l-33.846 33.846c1.545 10.769 6.846 20.522 14.747 27.679z" fill="#8c5f59"/><path d="m412.834 115.88v193.714c0 19.432-12.153 36.789-30.413 43.435l-139.577 50.801c-10.263 3.735-21.02 5.603-31.778 5.603v-293.553z" fill="url(#SVGID_2_)"/><path d="m398.388 95.248-153.764-55.966c-21.676-7.889-45.439-7.889-67.115 0l-34.337 12.498-20.182 24.262-57.96 4.18-41.286 15.026c-19.262 7.011-19.262 34.252 0 41.263l153.764 55.966c21.676 7.889 45.439 7.889 67.115 0l153.764-55.966c19.263-7.011 19.263-34.252.001-41.263z" fill="url(#SVGID_3_)"/><path d="m278.961 179.979 39.071 2.426 39.071-30.867-213.931-99.758-78.143 28.442z" fill="url(#SVGID_4_)"/><path d="m341.197 249.916-29.499 10.879c-15.88 5.857-32.738-5.894-32.738-22.819v-57.996l78.142-28.819v75.936c.001 10.187-6.348 19.294-15.905 22.819z" fill="url(#SVGID_5_)"/><path d="m127.185 236.164c-1.322 0-2.665-.23-3.979-.713l-44.278-16.329c-5.959-2.198-9.008-8.811-6.811-14.77 2.198-5.959 8.808-9.004 14.77-6.811l44.278 16.329c5.959 2.198 9.008 8.811 6.811 14.77-1.714 4.646-6.113 7.524-10.791 7.524z" fill="#8c5f59"/><path d="m385.755 336.673c14.931 0 27.079-12.148 27.079-27.079v-113.054c51.08 12.235 89.166 58.277 89.166 113.053 0 64.098-52.147 116.245-116.245 116.245h-268.54c-24.623 0-44.583-19.96-44.583-44.583s19.96-44.583 44.583-44.583z" fill="url(#SVGID_6_)"/><path d="m9.111 359.259 55.722-55.722c20.639-20.639 55.928-6.022 55.928 23.166v109.103c0 29.188-35.289 43.805-55.928 23.166l-55.722-55.72c-12.148-12.149-12.148-31.845 0-43.993z" fill="url(#SVGID_7_)"/></g></svg>